<?xml version="1.0" standalone="no"?>
<!DOCTYPE svg PUBLIC "-//W3C//DTD SVG 20010904//EN"
 "http://www.w3.org/TR/2001/REC-SVG-20010904/DTD/svg10.dtd">
<svg version="1.0" xmlns="http://www.w3.org/2000/svg"
 width="225.000000pt" height="225.000000pt" viewBox="0 0 225.000000 225.000000"
 preserveAspectRatio="xMidYMid meet">
<metadata>
Created by potrace 1.15, written by Peter Selinger 2001-2017
</metadata>
<g transform="translate(0.000000,225.000000) scale(0.100000,-0.100000)"
fill="#000000" stroke="none">
<path d="M310 1335 c0 -4 111 -161 141 -200 4 -6 -24 -54 -67 -113 -41 -56
-74 -104 -74 -107 0 -3 28 -5 63 -5 l62 0 74 103 c40 56 73 107 72 112 0 6
-33 56 -73 113 l-72 102 -63 0 c-35 0 -63 -2 -63 -5z"/>
<path d="M577 1243 c-25 -43 -25 -44 8 -87 l24 -31 -29 -39 -29 -38 23 -37
c22 -35 25 -36 90 -39 36 -2 66 1 66 5 0 5 -10 24 -23 43 -13 19 -33 51 -44
70 l-22 35 45 70 c24 39 44 73 44 78 0 4 -29 7 -65 7 -65 0 -66 0 -88 -37z"/>
<path d="M835 1258 c-11 -32 -75 -263 -75 -270 0 -5 55 -7 122 -6 l123 3 14
40 c7 22 14 55 16 72 1 18 7 38 13 45 19 24 32 90 21 109 -9 17 -23 19 -120
19 -79 0 -111 -4 -114 -12z"/>
<path d="M1115 1138 c-21 -73 -40 -139 -42 -145 -4 -10 22 -13 110 -13 l115 0
10 29 c6 16 8 32 5 35 -4 3 -39 6 -80 6 -52 0 -73 4 -73 13 0 6 13 56 29 110
l29 97 -33 0 -32 0 -38 -132z"/>
<path d="M1411 1252 c-20 -37 -71 -240 -65 -256 5 -13 24 -16 119 -16 63 0
116 4 120 9 14 24 65 214 65 246 l0 35 -115 0 c-101 0 -115 -2 -124 -18z m164
-52 c3 -5 -3 -41 -15 -80 l-21 -70 -59 0 c-37 0 -60 4 -60 11 0 20 32 124 42
137 12 14 104 16 113 2z"/>
<path d="M1686 1188 c-41 -136 -50 -174 -43 -191 5 -14 23 -17 116 -17 l110 0
21 71 c12 39 24 78 27 85 4 11 -10 14 -66 14 -68 0 -72 -1 -81 -26 -15 -39
-13 -44 26 -44 57 0 36 -24 -24 -28 -60 -4 -62 1 -37 82 22 73 27 76 115 76
78 0 78 0 89 30 l10 30 -119 0 -119 0 -25 -82z"/>
</g>
</svg>
